<svg width="73" height="50" viewBox="0 0 73 50" fill="none" xmlns="http://www.w3.org/2000/svg">
<mask id="mask0_294_235" style="mask-type:alpha" maskUnits="userSpaceOnUse" x="0" y="0" width="73" height="50">
<mask id="mask1_294_235" style="mask-type:alpha" maskUnits="userSpaceOnUse" x="0" y="0" width="73" height="50">
<path fill-rule="evenodd" clip-rule="evenodd" d="M39.6271 0.0758453C37.3261 0.50821 35.6608 1.91165 34.3836 4.49495C33.8143 5.64634 33.7183 5.77027 33.5536 5.56651C33.1203 5.03031 31.2363 3.63273 30.4095 3.23386C29.6278 2.85691 29.3682 2.80262 28.3458 2.80262C27.3264 2.80262 27.0748 2.85481 26.3837 3.21014C24.9071 3.96908 24.0213 5.17225 23.5484 7.06066L23.3114 8.00788L21.9396 7.4012C18.3749 5.82484 15.2516 5.65471 12.4042 6.88175L11.8022 7.14105L13.3672 8.08115C17.611 10.6305 20.6739 13.7565 22.554 17.4572C22.9208 18.1792 23.3979 19.2752 23.6142 19.8927C23.8304 20.5103 24.0752 21.0155 24.1582 21.0155C24.241 21.0155 24.8612 20.7933 25.5363 20.5219C28.5739 19.3001 33.5081 18.1354 37.0131 17.8127C39.0333 17.6267 42.7999 17.6274 44.9238 17.8141C48.6855 18.1447 53.8908 19.2302 57.1995 20.3739L58.1942 20.7178L58.3354 20.1339C59.1943 16.5801 60.6999 13.7347 62.8072 11.6824C64.519 10.0152 66.1862 9.09828 68.7775 8.39851L69.9314 8.08701L68.3648 7.37175C65.8366 6.21729 64.7924 5.91025 63.359 5.89951C61.8185 5.88806 60.8998 6.14918 59.1695 7.09011C58.1944 7.62045 57.8532 7.74857 57.8053 7.60273C57.7701 7.49568 57.4037 6.72376 56.9908 5.88722C55.8122 3.49875 54.732 2.60248 53.0237 2.59634C51.5973 2.59118 50.7152 3.04057 48.9292 4.68252C48.2964 5.26422 47.9031 5.5266 47.7078 5.49729C47.5096 5.46784 47.2118 5.08725 46.7563 4.2824C45.8983 2.76619 45.2703 1.99957 44.281 1.26087C42.9786 0.28812 41.0758 -0.196441 39.6271 0.0758453ZM42.2381 6.30354C43.0639 6.75949 43.8124 7.66581 44.0603 8.50988C44.1529 8.82501 44.2302 9.71095 44.2323 10.4785C44.2366 12.1247 43.9887 12.8228 43.0681 13.7566C41.0826 15.7708 38.1583 14.9853 37.1931 12.1787C36.8282 11.1179 36.8672 9.19723 37.2749 8.13865C37.6776 7.09304 38.0941 6.60709 38.9768 6.15225C39.9443 5.65388 41.1638 5.7104 42.2381 6.30354ZM30.9623 8.48978C32.3474 9.20155 33.2484 11.0044 33.1316 12.8303C33.0227 14.5333 32.2808 15.4266 30.8775 15.5447C29.4222 15.6671 28.2402 14.8551 27.4641 13.2C27.1048 12.4334 27.0389 12.1287 27.0389 11.2343C27.0389 10.2876 27.0821 10.1122 27.4475 9.57739C27.9023 8.91168 28.2407 8.64944 29.0006 8.37437C29.7477 8.10389 30.2712 8.1346 30.9623 8.48978ZM53.1039 8.42949C54.7951 9.08697 55.4043 11.8926 54.2789 13.8406C53.3584 15.434 51.6841 16.0125 50.4898 15.1497C49.8812 14.7101 49.2897 13.8322 49.0497 13.0123C48.4903 11.1013 49.1718 9.22626 50.6859 8.511C51.5091 8.12218 52.2493 8.09719 53.1039 8.42949ZM39.6271 25.5007C36 26.5007 34.3836 27.0007 31.0952 28.4137C29.4444 29.3918 25.758 31.3726 24.5625 31.9238C22.0962 33.061 20.0669 33.5082 17.89 33.394C15.2099 33.2535 13.549 32.6194 10.206 30.4607C6.75353 28.2313 0.120289 24.5501 0.0245362 24.8104C-0.119231 25.2014 0.383197 26.2607 1.15417 27.1913C6.18809 33.2685 6.60879 33.9181 6.60879 35.6121C6.60879 37.3158 5.57078 38.848 2.19081 42.1333C1.04975 43.2424 0.176833 44.1878 0.250849 44.2342C0.541135 44.4161 4.24923 42.6566 8.7243 40.2136C12.2413 38.2935 13.2909 37.8095 14.8503 37.3884C17.2165 36.7496 19.8892 36.9567 22.2848 37.9648C22.7052 38.1418 24.1945 38.7893 25.5943 39.4041C26.9941 40.0189 28.9133 40.8497 29.8592 41.2505C30.805 41.6513 31.6555 42.0526 31.7491 42.1423C31.8833 42.2707 31.6866 43.0721 30.8189 45.9306C30.2136 47.9245 29.6876 49.641 29.6501 49.7449C29.6031 49.8745 29.7052 49.8527 29.9753 49.6751C30.7048 49.1955 34.2579 46.6332 35.6064 45.6139C36.3423 45.0578 37.2848 44.4303 37.701 44.2196L38.4577 43.8365L43.0665 43.8188C49.1059 43.7956 52.9561 43.3434 57.9935 42.0657C61.5717 41.1581 67.5365 39.0449 69.7563 37.8984C71.1584 37.1742 72.4269 36.0624 72.9109 35.1335C73.1625 34.6506 72.8696 34.0572 72.1794 33.6516C71.8682 33.4688 70.7778 32.93 69.7563 32.454C68.7348 31.9781 67.5275 31.4144 67.0735 31.2015C63 29.5007 62.2385 29.6224 60.089 29.0007C58.232 28.4636 57.5 28.0007 56 27.5007C54.6657 27.056 53.2314 26.5779 51.5 26.0007C50 25.5007 46.3239 25.0007 44.281 25.0007C42.2381 25.0007 39.6271 25.5007 39.6271 25.5007ZM62.3857 32.5403C62.7037 32.8179 62.7717 32.9893 62.7717 33.5142C62.7717 34.0229 62.6956 34.2283 62.3934 34.535C61.5525 35.388 60.089 34.7412 60.089 33.5164C60.089 32.3807 61.5104 31.7766 62.3857 32.5403Z" fill="black"/>
</mask>
<g mask="url(#mask1_294_235)">
<rect y="22.0007" width="76" height="42" fill="#D82126"/>
<rect y="-4.99927" width="76" height="26" fill="#27357C"/>
</g>
</mask>
<g mask="url(#mask0_294_235)">
<rect x="-23" y="-29.9993" width="127" height="115" fill="white"/>
</g>
</svg>
