<svg width="57" height="39" viewBox="0 0 57 39" fill="none" xmlns="http://www.w3.org/2000/svg">
<mask id="mask0_294_173" style="mask-type:alpha" maskUnits="userSpaceOnUse" x="0" y="0" width="57" height="39">
<path fill-rule="evenodd" clip-rule="evenodd" d="M30.9417 0.0587914C29.1451 0.397206 27.8447 1.49569 26.8475 3.51766C26.403 4.41886 26.328 4.51586 26.1994 4.35638C25.861 3.93669 24.39 2.84279 23.7444 2.5306C23.134 2.23555 22.9313 2.19306 22.133 2.19306C21.337 2.19306 21.1406 2.23391 20.601 2.51203C19.448 3.10605 18.7563 4.04778 18.3871 5.52586L18.202 6.26725L17.1309 5.7924C14.3475 4.55857 11.9088 4.42541 9.68546 5.38582L9.21538 5.58878L10.4374 6.3246C13.7511 8.32003 16.1426 10.7667 17.6107 13.6633C17.8971 14.2284 18.2696 15.0862 18.4385 15.5696C18.6073 16.053 18.7984 16.4484 18.8632 16.4484C18.9279 16.4484 19.4121 16.2745 19.9393 16.0621C22.3112 15.1058 26.1639 14.1941 28.9007 13.9416C30.4781 13.7959 33.4191 13.7965 35.0775 13.9427C38.0147 14.2014 42.0792 15.0511 44.6627 15.9463L45.4393 16.2154L45.5495 15.7584C46.2202 12.9768 47.3958 10.7497 49.0412 9.14334C50.3779 7.8384 51.6796 7.12072 53.703 6.57301L54.604 6.32919L53.3807 5.76935C51.4066 4.86575 50.5913 4.62543 49.4721 4.61702C48.2693 4.60806 47.5519 4.81244 46.2008 5.54891C45.4394 5.96401 45.173 6.06429 45.1356 5.95014C45.1081 5.86635 44.8221 5.26217 44.4997 4.6074C43.5794 2.73793 42.7359 2.03641 41.4021 2.0316C40.2883 2.02756 39.5995 2.3793 38.205 3.66447C37.7109 4.11977 37.4038 4.32514 37.2513 4.3022C37.0966 4.27915 36.864 3.98126 36.5083 3.35129C35.8384 2.16454 35.3481 1.56451 34.5756 0.986319C33.5586 0.22494 32.0729 -0.154329 30.9417 0.0587914ZM32.9805 4.93326C33.6252 5.29013 34.2097 5.99951 34.4033 6.66018C34.4756 6.90683 34.5359 7.60027 34.5376 8.20107C34.5409 9.48951 34.3473 10.0359 33.6285 10.7668C32.0782 12.3433 29.7949 11.7285 29.0412 9.53179C28.7563 8.70148 28.7867 7.19817 29.1051 6.36961C29.4195 5.55121 29.7447 5.17084 30.4339 4.81484C31.1894 4.42476 32.1416 4.469 32.9805 4.93326ZM24.176 6.64445C25.2575 7.20155 25.9611 8.61267 25.8698 10.0418C25.7849 11.3747 25.2055 12.0739 24.1098 12.1664C22.9735 12.2622 22.0505 11.6266 21.4446 10.3312C21.164 9.73114 21.1125 9.49268 21.1125 8.79258C21.1125 8.05163 21.1463 7.91432 21.4316 7.49573C21.7867 6.97467 22.051 6.76941 22.6443 6.55411C23.2277 6.34241 23.6364 6.36644 24.176 6.64445ZM41.4647 6.59726C42.7852 7.11187 43.2609 9.30785 42.3822 10.8326C41.6634 12.0797 40.3561 12.5325 39.4236 11.8572C38.9483 11.5131 38.4865 10.826 38.2991 10.1843C37.8623 8.68848 38.3945 7.22089 39.5766 6.66105C40.2195 6.35672 40.7974 6.33716 41.4647 6.59726ZM30.9417 19.959C28.1096 20.7418 26.8475 21.1331 24.2798 22.2391C22.9908 23.0046 20.1124 24.555 19.1789 24.9865C17.2532 25.8765 15.6687 26.2265 13.9689 26.1372C11.8762 26.0272 10.5793 25.5309 7.96907 23.8412C5.2733 22.0963 0.0939245 19.215 0.0191584 19.4187C-0.0930981 19.7248 0.299209 20.5539 0.901205 21.2823C4.83179 26.039 5.16029 26.5473 5.16029 27.8733C5.16029 29.2068 4.34979 30.406 1.71063 32.9775C0.819671 33.8456 0.138075 34.5855 0.195868 34.6219C0.42253 34.7642 3.31789 33.3871 6.81213 31.4749C9.55828 29.972 10.3778 29.5932 11.5954 29.2636C13.443 28.7637 15.5299 28.9258 17.4004 29.7148C17.7287 29.8533 18.8916 30.3601 19.9846 30.8413C21.0776 31.3225 22.5762 31.9728 23.3147 32.2865C24.0532 32.6003 24.7173 32.9143 24.7904 32.9846C24.8952 33.085 24.7416 33.7123 24.0641 35.9497C23.5914 37.5103 23.1807 38.8538 23.1514 38.9351C23.1148 39.0366 23.1945 39.0195 23.4054 38.8805C23.975 38.5051 26.7493 36.4996 27.8023 35.7018C28.3769 35.2665 29.1128 34.7754 29.4378 34.6104L30.0286 34.3106L33.6273 34.2967C38.343 34.2786 41.3493 33.9246 45.2826 32.9246C48.0765 32.2142 52.734 30.5602 54.4672 29.6628C55.5621 29.0959 56.5525 28.2258 56.9304 27.4987C57.1269 27.1207 56.8982 26.6563 56.3593 26.3388C56.1163 26.1957 55.2648 25.774 54.4672 25.4015C53.6696 25.029 52.727 24.5878 52.3725 24.4211C49.1918 23.0899 48.5972 23.1851 46.9188 22.6985C45.4688 22.2781 44.8973 21.9158 43.726 21.5245C42.6842 21.1764 41.5642 20.8021 40.2123 20.3504C39.0411 19.959 36.1707 19.5677 34.5756 19.5677C32.9805 19.5677 30.9417 19.959 30.9417 19.959ZM48.7121 25.469C48.9605 25.6863 49.0135 25.8204 49.0135 26.2312C49.0135 26.6294 48.9541 26.7902 48.7181 27.0302C48.0615 27.6979 46.9188 27.1917 46.9188 26.233C46.9188 25.344 48.0287 24.8713 48.7121 25.469Z" fill="black"/>
</mask>
<g mask="url(#mask0_294_173)">
<rect x="-4" y="16" width="76" height="42" fill="#D82126"/>
<rect x="-2" y="-10" width="76" height="26" fill="#27357C"/>
</g>
</svg>
