<svg width="28" height="26" viewBox="0 0 28 26" fill="none" xmlns="http://www.w3.org/2000/svg">
<path d="M0.631393 17.6875H2.2061C3.26616 22.7038 8.84536 25.5 14.0009 25.5C19.1648 25.5 24.7368 22.6982 25.7956 17.6875H27.3703C27.89 17.6875 28.1503 17.0563 27.7828 16.6872L24.5244 13.4143C24.2966 13.1855 23.9273 13.1855 23.6995 13.4143L20.4411 16.6872C20.0736 17.0564 20.3339 17.6875 20.8536 17.6875H22.5621C21.5757 20.3397 18.4319 21.9154 15.5564 22.2781V13H18.0841C18.4063 13 18.6675 12.7376 18.6675 12.414V10.4609C18.6675 10.1373 18.4063 9.87498 18.0841 9.87498H15.5564V9.60789C17.3686 8.96443 18.6672 7.22874 18.6675 5.18807C18.6678 2.63728 16.6067 0.536015 14.0675 0.500468C11.4596 0.463896 9.33419 2.5764 9.33419 5.18748C9.33419 7.2284 10.6329 8.96434 12.4453 9.60789V9.87498H9.91753C9.59538 9.87498 9.33419 10.1373 9.33419 10.4609V12.414C9.33419 12.7376 9.59538 13 9.91753 13H12.4453V22.2781C9.58036 21.9168 6.42628 20.3406 5.43962 17.6875H7.1481C7.6678 17.6875 7.92807 17.0563 7.56057 16.6872L4.30221 13.4143C4.07442 13.1855 3.70507 13.1855 3.47723 13.4143L0.218879 16.6872C-0.148572 17.0563 0.111692 17.6875 0.631393 17.6875ZM14.0009 3.62498C14.8586 3.62498 15.5564 4.32591 15.5564 5.18748C15.5564 6.04905 14.8586 6.74998 14.0009 6.74998C13.1431 6.74998 12.4453 6.04905 12.4453 5.18748C12.4453 4.32591 13.1431 3.62498 14.0009 3.62498Z" fill="#27357C"/>
</svg>
