<svg width="24" height="24" viewBox="0 0 24 24" fill="none" xmlns="http://www.w3.org/2000/svg">
<path fill-rule="evenodd" clip-rule="evenodd" d="M5.43903 0.120291C5.28545 0.198253 5.1522 0.313592 5.06583 0.443336L4.93151 0.64506L4.91685 2.67905C4.9069 4.06732 4.91873 4.77027 4.95424 4.89331C5.01497 5.10399 5.24031 5.38161 5.43297 5.48312C5.50732 5.52232 5.70341 5.56726 5.86863 5.583C6.42162 5.6356 6.82605 5.45311 7.03369 5.05723C7.13688 4.86053 7.13922 4.81942 7.15317 2.95016C7.16895 0.839317 7.15177 0.650133 6.91768 0.36078C6.7076 0.1011 6.46281 0.00131519 6.03269 2.30138e-05C5.74577 -0.000838439 5.63225 0.0221815 5.43903 0.120291ZM17.6125 0.0638184C17.4248 0.151017 17.2174 0.36748 17.1245 0.573272C17.06 0.716177 17.0468 1.0129 17.0346 2.59443C17.0166 4.93476 17.0298 5.01942 17.4673 5.38027C17.6288 5.51351 17.6807 5.52816 18.0472 5.54381C18.5079 5.56352 18.7424 5.50672 18.9556 5.32394C19.2762 5.04909 19.2777 5.03737 19.2788 2.77294C19.2798 0.755086 19.2789 0.735273 19.1742 0.526371C19.116 0.410457 18.9873 0.249749 18.8881 0.169251C18.7169 0.0302696 18.6838 0.0222772 18.2306 0.0106476C17.904 0.00227237 17.7089 0.0190228 17.6125 0.0638184ZM1.10142 2.02635C0.681863 2.14164 0.294622 2.48445 0.100368 2.9125L0 3.1337V12.9925V22.8514L0.124509 23.122C0.271515 23.4415 0.553221 23.7355 0.85982 23.8894L1.08023 24H12H22.9198L23.1402 23.8894C23.4468 23.7355 23.7285 23.4415 23.8755 23.122L24 22.8514V12.9925V3.1337L23.8699 2.86368C23.7181 2.54868 23.4034 2.23497 23.0924 2.08852C22.8853 1.99098 22.7919 1.98424 21.4521 1.96997L20.0313 1.95485V3.55275C20.0313 4.87235 20.0186 5.18865 19.9583 5.36893C19.7855 5.88576 19.285 6.22857 18.5657 6.3228C17.5551 6.45518 16.8118 6.10097 16.4428 5.31126L16.2975 5.00018L16.2822 3.48067L16.267 1.96117H12.0905H7.91389L7.91314 3.36103C7.91234 4.87805 7.88266 5.13605 7.66544 5.51375C7.50261 5.79688 7.20859 6.06049 6.88626 6.21234C6.53753 6.37664 5.81396 6.4167 5.40169 6.29456C4.91314 6.14984 4.53205 5.82411 4.30727 5.35912L4.18004 5.0959L4.16647 3.52853L4.15289 1.96117L2.73398 1.96437C1.76985 1.96658 1.24659 1.98644 1.10142 2.02635ZM22.4736 15.3376V22.4925H12H1.52642V15.3376V8.18277H12H22.4736V15.3376ZM12.6419 10.1769C12.6247 10.1944 12.6106 10.8039 12.6106 11.5313C12.6106 12.4961 12.6258 12.8693 12.6669 12.9112C12.7475 12.9933 15.6204 12.9933 15.701 12.9112C15.7813 12.8293 15.7813 10.2843 15.701 10.2024C15.6595 10.1601 15.2518 10.145 14.1589 10.145C13.3417 10.145 12.6591 10.1593 12.6419 10.1769ZM17.1507 10.1769C17.1335 10.1944 17.1194 10.8039 17.1194 11.5313C17.1194 12.4961 17.1346 12.8693 17.1757 12.9112C17.2563 12.9933 20.1292 12.9933 20.2098 12.9112C20.2901 12.8293 20.2901 10.2843 20.2098 10.2024C20.1683 10.1601 19.7606 10.145 18.6677 10.145C17.8506 10.145 17.1679 10.1593 17.1507 10.1769ZM3.6449 14.1829C3.60709 14.2294 3.59512 14.6384 3.60395 15.5827L3.61644 16.9169L5.11374 16.9296C6.17951 16.9386 6.62964 16.9266 6.67538 16.8878C6.76307 16.8137 6.77058 14.2635 6.68337 14.1747C6.59577 14.0854 3.71798 14.0932 3.6449 14.1829ZM8.15371 14.1829C8.1159 14.2294 8.10392 14.6384 8.11275 15.5827L8.12524 16.9169L9.62254 16.9296C10.6883 16.9386 11.1384 16.9266 11.1842 16.8878C11.2719 16.8137 11.2794 14.2635 11.1922 14.1747C11.1046 14.0854 8.22679 14.0932 8.15371 14.1829ZM12.6625 14.1829C12.6247 14.2294 12.6127 14.6384 12.6216 15.5827L12.6341 16.9169L14.1314 16.9296C15.1971 16.9386 15.6472 16.9266 15.693 16.8878C15.7807 16.8137 15.7882 14.2635 15.701 14.1747C15.6134 14.0854 12.7356 14.0932 12.6625 14.1829ZM17.1713 14.1829C17.1335 14.2294 17.1215 14.6384 17.1304 15.5827L17.1429 16.9169L18.6402 16.9296C19.7059 16.9386 20.1561 16.9266 20.2018 16.8878C20.2895 16.8137 20.297 14.2635 20.2098 14.1747C20.1222 14.0854 17.2444 14.0932 17.1713 14.1829ZM3.67515 18.1412C3.6 18.1858 3.59295 18.3037 3.59295 19.5181C3.59295 20.4872 3.60817 20.8616 3.64931 20.9036C3.69069 20.9457 4.08902 20.961 5.14892 20.961C6.39828 20.961 6.60202 20.9509 6.66594 20.8858C6.72935 20.8211 6.73973 20.6299 6.73973 19.5245C6.73973 18.2498 6.73879 18.2378 6.63532 18.164C6.54646 18.1005 6.32492 18.0897 5.14413 18.0909C4.28989 18.0918 3.72578 18.1111 3.67515 18.1412ZM8.18395 18.1412C8.10881 18.1858 8.10176 18.3037 8.10176 19.5181C8.10176 20.4872 8.11698 20.8616 8.15812 20.9036C8.1995 20.9457 8.59782 20.961 9.65772 20.961C10.9071 20.961 11.1108 20.9509 11.1747 20.8858C11.2382 20.8211 11.2485 20.6299 11.2485 19.5245C11.2485 18.2498 11.2476 18.2378 11.1441 18.164C11.0553 18.1005 10.8337 18.0897 9.65293 18.0909C8.7987 18.0918 8.23458 18.1111 8.18395 18.1412ZM12.6928 18.1412C12.6176 18.1858 12.6106 18.3041 12.6106 19.5259C12.6106 20.7978 12.6149 20.8643 12.7014 20.9115C12.7582 20.9424 13.3197 20.961 14.201 20.961C15.419 20.961 15.6197 20.9508 15.6836 20.8858C15.747 20.8211 15.7573 20.6299 15.7573 19.5245C15.7573 18.2498 15.7564 18.2378 15.6529 18.164C15.5641 18.1005 15.3425 18.0897 14.1617 18.0909C13.3075 18.0918 12.7434 18.1111 12.6928 18.1412ZM17.2016 18.1412C17.1264 18.1858 17.1194 18.3041 17.1194 19.5259C17.1194 20.7978 17.1237 20.8643 17.2102 20.9115C17.267 20.9424 17.8285 20.961 18.7098 20.961C19.9278 20.961 20.1285 20.9508 20.1924 20.8858C20.2558 20.8211 20.2661 20.6299 20.2661 19.5245C20.2661 18.2498 20.2652 18.2378 20.1617 18.164C20.0729 18.1005 19.8513 18.0897 18.6705 18.0909C17.8163 18.0918 17.2522 18.1111 17.2016 18.1412Z" fill="#27357C"/>
</svg>
