<svg width="25" height="19" viewBox="0 0 25 19" fill="none" xmlns="http://www.w3.org/2000/svg">
<path fill-rule="evenodd" clip-rule="evenodd" d="M0.520091 0.566156C0.150475 0.728846 -0.0627778 1.16083 0.0164654 1.58645C0.0654756 1.84983 0.344559 2.1609 0.597937 2.23462C0.739323 2.27578 4.44761 2.28902 12.6316 2.27759L24.4609 2.26103L24.6152 2.14491C24.9085 1.92427 25 1.7443 25 1.38817C25 1.03204 24.9085 0.85206 24.6152 0.631423L24.4609 0.515305L12.5757 0.503197C2.77987 0.493286 0.660582 0.504323 0.520091 0.566156ZM0.520091 8.67527C0.150419 8.83808 -0.0627778 9.27 0.0164654 9.69562C0.0654756 9.959 0.344559 10.2701 0.597937 10.3439C0.739043 10.3849 3.91056 10.3982 10.8433 10.3868L20.8844 10.3702L21.0387 10.2541C21.3319 10.0334 21.4234 9.85347 21.4234 9.49734C21.4234 9.14122 21.3319 8.96124 21.0387 8.7406L20.8844 8.62448L10.7875 8.61237C2.47843 8.60241 0.660359 8.61355 0.520091 8.67527ZM0.520091 16.7843C0.150307 16.9475 -0.0627778 17.3792 0.0164654 17.8048C0.0654756 18.0681 0.344503 18.3792 0.597937 18.4532C0.737758 18.494 2.70207 18.5075 6.81971 18.4961C12.7972 18.4795 12.8381 18.4786 12.9914 18.3633C13.2847 18.1426 13.3762 17.9626 13.3762 17.6065C13.3762 17.2504 13.2847 17.0704 12.9914 16.8498C12.838 16.7343 12.8011 16.7336 6.76382 16.7214C1.80011 16.7114 0.659409 16.7228 0.520091 16.7843Z" fill="#27357C"/>
</svg>
